<svg width="71" height="63" viewBox="0 0 71 63" fill="none" xmlns="http://www.w3.org/2000/svg">
<g clip-path="url(#clip0)">
<path d="M46.2659 61.3613C45.9005 61.4721 45.5326 61.5797 45.1624 61.6785C45.5338 61.5786 45.9005 61.471 46.2659 61.3613Z" fill="#F9EDE0"/>
<path d="M48.0994 60.7559C47.7049 60.8971 47.3104 61.0361 46.9087 61.1643C47.3104 61.035 47.7061 60.8971 48.0994 60.7559Z" fill="#F9EDE0"/>
<path d="M35.0921 63C54.4729 63 70.1842 48.897 70.1842 31.5C70.1842 14.103 54.4729 0 35.0921 0C15.7113 0 0 14.103 0 31.5C0 48.897 15.7113 63 35.0921 63Z" fill="#EFECE8"/>
<path d="M44.4544 61.8574C44.0962 61.9465 43.7356 62.0312 43.3713 62.1105C43.7356 62.0312 44.0962 61.9465 44.4544 61.8574Z" fill="#F9EDE0"/>
<path d="M32.5498 62.9064C32.1214 62.8792 31.6943 62.8499 31.272 62.8086C31.6955 62.8499 32.1227 62.8792 32.5498 62.9064Z" fill="#F9EDE0"/>
<path d="M26.8115 62.1086C26.4485 62.0293 26.0879 61.9445 25.7285 61.8555C26.0879 61.9456 26.4485 62.0304 26.8115 62.1086Z" fill="#F9EDE0"/>
<path d="M30.5458 62.7287C30.1622 62.6841 29.7799 62.6374 29.3999 62.582C29.7787 62.6374 30.1622 62.683 30.5458 62.7287Z" fill="#F9EDE0"/>
<path d="M35.092 62.9981C34.4458 62.9981 33.8057 62.9796 33.168 62.9492C33.8057 62.9796 34.4458 62.9981 35.092 62.9981Z" fill="#F9EDE0"/>
<path d="M28.651 62.4594C28.2831 62.3986 27.9165 62.3334 27.5535 62.2617C27.9165 62.3334 28.2831 62.3986 28.651 62.4594Z" fill="#F9EDE0"/>
<path d="M21.571 60.5723C21.0253 60.367 20.4856 60.1519 19.9543 59.9238C20.4868 60.1519 21.0265 60.3681 21.571 60.5723Z" fill="#F9EDE0"/>
<path d="M23.2744 61.1623C22.8739 61.0331 22.4782 60.8951 22.0837 60.7539C22.4782 60.8951 22.8739 61.0331 23.2744 61.1623Z" fill="#F9EDE0"/>
<path d="M37.0161 62.9492C36.3783 62.9796 35.7382 62.9981 35.092 62.9981C35.7382 62.9981 36.3783 62.9796 37.0161 62.9492Z" fill="#F9EDE0"/>
<path d="M38.9121 62.8086C38.4886 62.8499 38.0614 62.8792 37.6343 62.9064C38.0614 62.8792 38.4886 62.8499 38.9121 62.8086Z" fill="#F9EDE0"/>
<path d="M42.632 62.2617C42.2677 62.3334 41.9023 62.3986 41.5344 62.4594C41.9011 62.3986 42.2677 62.3334 42.632 62.2617Z" fill="#F9EDE0"/>
<path d="M40.7853 62.5801C40.4054 62.6355 40.023 62.6822 39.6394 62.7267C40.0218 62.6822 40.4054 62.6366 40.7853 62.5801Z" fill="#F9EDE0"/>
<path d="M50.2227 59.9258C49.6939 60.1528 49.1566 60.3679 48.6133 60.5721C49.1566 60.3679 49.6939 60.1539 50.2227 59.9258Z" fill="#F9EDE0"/>
<path d="M25.0218 61.6765C24.6503 61.5766 24.2837 61.4691 23.9182 61.3594C24.2837 61.4691 24.6503 61.5766 25.0218 61.6765Z" fill="#F9EDE0"/>
<path d="M48.6132 60.5723C48.4438 60.6363 48.2707 60.6928 48.1001 60.7537C48.2695 60.6928 48.4425 60.6363 48.6132 60.5723Z" fill="#F9EDE0"/>
<path d="M50.2713 59.9062C50.2555 59.9128 50.2385 59.9193 50.2227 59.9258C50.2385 59.9193 50.2555 59.9139 50.2713 59.9062Z" fill="#F9EDE0"/>
<path d="M27.5518 62.2625C27.3038 62.2137 27.0569 62.1626 26.8113 62.1094C27.0569 62.1626 27.3038 62.2137 27.5518 62.2625Z" fill="#F9EDE0"/>
<path d="M29.3987 62.5785C29.1482 62.5415 28.8989 62.5003 28.6497 62.459C28.9001 62.5003 29.1482 62.5426 29.3987 62.5785Z" fill="#F9EDE0"/>
<path d="M33.1682 62.9506C32.9612 62.9408 32.7555 62.9212 32.5498 62.9082C32.7567 62.9212 32.9612 62.9408 33.1682 62.9506Z" fill="#F9EDE0"/>
<path d="M31.2717 62.8111C31.0285 62.7872 30.7877 62.7568 30.5457 62.7285C30.7877 62.7568 31.0285 62.7872 31.2717 62.8111Z" fill="#F9EDE0"/>
<path d="M19.9554 59.9245C19.942 59.9191 19.9274 59.9136 19.9141 59.9082C19.9274 59.9136 19.942 59.9191 19.9554 59.9245Z" fill="#F9EDE0"/>
<path d="M37.6345 62.9082C37.4275 62.9212 37.223 62.9408 37.0161 62.9506C37.223 62.9408 37.4275 62.9212 37.6345 62.9082Z" fill="#F9EDE0"/>
<path d="M45.1622 61.6758C44.9275 61.7388 44.6915 61.7974 44.4543 61.8561C44.6915 61.7974 44.9275 61.7388 45.1622 61.6758Z" fill="#F9EDE0"/>
<path d="M46.9096 61.1621C46.6967 61.2305 46.4813 61.2925 46.2671 61.3576C46.4813 61.2925 46.6967 61.2305 46.9096 61.1621Z" fill="#F9EDE0"/>
<path d="M22.0851 60.7556C21.9145 60.6948 21.7414 60.6372 21.572 60.5742C21.7414 60.6372 21.9145 60.6937 22.0851 60.7556Z" fill="#F9EDE0"/>
<path d="M23.9182 61.3576C23.704 61.2925 23.4874 61.2305 23.2756 61.1621C23.4874 61.2305 23.7028 61.2925 23.9182 61.3576Z" fill="#F9EDE0"/>
<path d="M39.6381 62.7285C39.3961 62.7568 39.1553 62.7883 38.9121 62.8111C39.1553 62.7872 39.3961 62.7568 39.6381 62.7285Z" fill="#F9EDE0"/>
<path d="M43.3726 62.1074C43.127 62.1606 42.8801 62.2117 42.6321 62.2606C42.8801 62.2128 43.127 62.1617 43.3726 62.1074Z" fill="#F9EDE0"/>
<path d="M41.5332 62.459C41.2839 62.5003 41.0359 62.5426 40.7842 62.5785C41.0359 62.5426 41.2839 62.5003 41.5332 62.459Z" fill="#F9EDE0"/>
<path d="M25.7296 61.8561C25.4937 61.7974 25.2565 61.7388 25.0217 61.6758C25.2565 61.7388 25.4924 61.7974 25.7296 61.8561Z" fill="#F9EDE0"/>
<path d="M43.1244 33.6654C47.0341 31.329 49.6128 27.3415 49.6128 22.8099C49.6128 15.6116 43.1111 9.77539 35.0919 9.77539C27.0728 9.77539 20.5711 15.6116 20.5711 22.8099C20.5711 27.3415 23.1497 31.329 27.0595 33.6654C27.0595 33.6654 27.0607 33.6665 27.0619 33.6665C27.0607 33.6665 27.0607 33.6654 27.0607 33.6654C17.702 36.1974 10.4149 43.0155 8.0686 51.5933L8.06981 51.5944C8.4522 52.0082 8.8491 52.4123 9.25447 52.8087C9.35249 52.9054 9.45535 52.9977 9.55578 53.0922C9.86798 53.3899 10.1838 53.6831 10.5081 53.9699C10.6424 54.0883 10.7792 54.2023 10.9159 54.3186C11.216 54.5749 11.5197 54.828 11.8295 55.0746C11.9832 55.1962 12.1393 55.3168 12.2942 55.4363C12.5979 55.6698 12.9053 55.899 13.2187 56.1228C13.3832 56.2411 13.549 56.3574 13.7148 56.4736C14.0318 56.693 14.3537 56.9059 14.6792 57.1145C14.8474 57.222 15.0132 57.3317 15.1838 57.4371C15.5275 57.65 15.8772 57.8542 16.2293 58.0562C16.3879 58.1464 16.5427 58.2398 16.7025 58.3288C17.1091 58.5537 17.5229 58.7688 17.9404 58.9795C18.0505 59.0349 18.1582 59.0946 18.2695 59.1489C18.8092 59.414 19.3574 59.6681 19.914 59.9082C19.9273 59.9136 19.9418 59.919 19.9551 59.9245C20.4864 60.1526 21.0261 60.3687 21.5718 60.5729C21.7412 60.637 21.9143 60.6935 22.0849 60.7543C22.4794 60.8955 22.8738 61.0346 23.2756 61.1628C23.4886 61.2312 23.7039 61.2931 23.9181 61.3583C24.2836 61.4691 24.6514 61.5766 25.0217 61.6754C25.2565 61.7384 25.4924 61.7971 25.7296 61.8558C26.0878 61.9448 26.4484 62.0295 26.8126 62.1088C27.0583 62.1621 27.3051 62.2131 27.5532 62.262C27.9174 62.3337 28.2829 62.3989 28.6507 62.4597C28.9 62.501 29.1481 62.5433 29.3998 62.5792C29.7797 62.6346 30.1621 62.6813 30.5457 62.7258C30.7877 62.754 31.0285 62.7855 31.2717 62.8084C31.6953 62.8496 32.1224 62.879 32.5496 62.9061C32.7565 62.9192 32.961 62.9387 33.1679 62.9485C33.8056 62.9811 34.4458 62.9995 35.0919 62.9995C35.7381 62.9995 36.3782 62.9811 37.016 62.9507C37.2229 62.9409 37.4286 62.9213 37.6343 62.9083C38.0627 62.8811 38.4898 62.8518 38.9121 62.8105C39.1554 62.7866 39.3962 62.7562 39.6382 62.728C40.0218 62.6834 40.4042 62.6367 40.7841 62.5813C41.0346 62.5444 41.2839 62.5031 41.5332 62.4619C41.901 62.401 42.2677 62.3359 42.6307 62.2642C42.8788 62.2153 43.1256 62.1642 43.3713 62.111C43.7343 62.0317 44.0949 61.947 44.4543 61.8579C44.6902 61.7993 44.9274 61.7406 45.1622 61.6776C45.5337 61.5777 45.9003 61.4701 46.2658 61.3604C46.4799 61.2953 46.6965 61.2334 46.9083 61.1649C47.3088 61.0357 47.7045 60.8977 48.099 60.7565C48.2696 60.6957 48.4427 60.6381 48.6121 60.5751C49.1554 60.3709 49.6927 60.1569 50.2215 59.9288C50.2372 59.9223 50.2541 59.9158 50.2699 59.9093C50.8265 59.6692 51.3747 59.415 51.9144 59.15C52.0257 59.0957 52.1334 59.036 52.2435 58.9806C52.661 58.7698 53.0748 58.5548 53.4814 58.3299C53.6411 58.2419 53.7972 58.1485 53.9546 58.0573C54.3067 57.8553 54.6564 57.65 55.0001 57.4382C55.1695 57.3328 55.3365 57.2242 55.5047 57.1155C55.8302 56.9059 56.152 56.693 56.4691 56.4747C56.6361 56.3595 56.8006 56.2422 56.9652 56.1238C57.2774 55.9001 57.586 55.6709 57.8897 55.4374C58.0458 55.3179 58.2019 55.1973 58.3544 55.0757C58.6642 54.8291 58.9679 54.576 59.268 54.3196C59.4035 54.2034 59.5415 54.0883 59.6758 53.971C60.0001 53.6842 60.3171 53.3909 60.6281 53.0933C60.7273 52.9977 60.8302 52.9054 60.9294 52.8098C61.3348 52.4134 61.7317 52.0093 62.1141 51.5954L62.1153 51.5944C59.7702 43.0155 52.4831 36.1974 43.1244 33.6654Z" fill="#C6C3BD"/>
</g>
<defs>
<clipPath id="clip0">
<rect width="70.1842" height="63" fill="white"/>
</clipPath>
</defs>
</svg>
